<svg width="143" height="105" viewBox="0 0 143 105" fill="none" xmlns="http://www.w3.org/2000/svg">
<path d="M57.6588 17.9589C57.6532 18.0739 57.6566 18.1891 57.6691 18.3036L49.7441 24.935L47.3805 24.0818L45.6229 27.4698L50.7901 29.922L59.4541 20.2281C59.8916 20.3072 60.3429 20.2516 60.748 20.0688C61.153 19.8859 61.4927 19.5845 61.7217 19.2045C61.9507 18.8245 62.0583 18.384 62.0302 17.9416C62.002 17.4992 61.8394 17.0758 61.564 16.7277C61.2886 16.3797 60.9135 16.1235 60.4885 15.9931C60.0636 15.8628 59.6088 15.8646 59.1849 15.9982C58.7609 16.1319 58.3878 16.391 58.1152 16.7412C57.8426 17.0914 57.6833 17.5161 57.6586 17.9587L57.6588 17.9589Z" fill="#A0616A"/>
<path d="M47.0298 29.095L39.3767 26.3401C39.0288 26.2149 38.7091 26.0226 38.4357 25.7742C38.1624 25.5257 37.9408 25.2261 37.7836 24.8923C37.6263 24.5585 37.5366 24.1971 37.5195 23.8287C37.5024 23.4603 37.5582 23.0922 37.6838 22.7453C37.8093 22.3985 38.0022 22.0797 38.2513 21.8071C38.5005 21.5346 38.801 21.3136 39.1358 21.1569C39.8119 20.8403 40.5865 20.8045 41.2891 21.0574L48.9422 23.8123C49.1763 23.8965 49.3673 24.0701 49.4731 24.2947C49.579 24.5194 49.591 24.7768 49.5065 25.0102L48.2316 28.5322C48.1467 28.7655 47.9726 28.9557 47.7473 29.0612C47.522 29.1667 47.264 29.1788 47.0298 29.0948L47.0298 29.095Z" fill="#CCCCCC"/>
<path d="M41.4249 55.9267H43.9826L45.1993 46.0902H41.4246L41.4249 55.9267Z" fill="#A0616A"/>
<path d="M48.915 58.2948L40.8766 58.2952L40.8765 55.1986L45.8091 55.1983C46.2169 55.1983 46.6208 55.2784 46.9976 55.434C47.3744 55.5896 47.7168 55.8176 48.0052 56.1052C48.2937 56.3927 48.5225 56.7341 48.6786 57.1098C48.8347 57.4855 48.915 57.8881 48.915 58.2948Z" fill="#2F2E41"/>
<path d="M35.1038 52.6322L37.196 54.099L43.8659 46.7504L40.7781 44.5858L35.1038 52.6322Z" fill="#A0616A"/>
<path d="M39.6129 58.3618L33.0374 53.7533L34.8232 51.2202L38.8582 54.0482C39.1918 54.282 39.476 54.5791 39.6945 54.9224C39.913 55.2658 40.0615 55.6486 40.1316 56.0492C40.2017 56.4497 40.1919 56.8601 40.1029 57.257C40.0139 57.6538 39.8474 58.0292 39.6129 58.3618Z" fill="#2F2E41"/>
<path d="M47.0215 38.2077C47.0215 38.2077 53.4044 37.4569 52.2587 41.5865C51.1131 45.7161 38.3473 49.2828 38.3473 49.2828L47.0215 38.2077Z" fill="#A0616A"/>
<path d="M42.6282 17.1355C45.4581 17.1355 47.7522 14.8482 47.7522 12.0266C47.7522 9.20501 45.4581 6.91766 42.6282 6.91766C39.7983 6.91766 37.5042 9.20501 37.5042 12.0266C37.5042 14.8482 39.7983 17.1355 42.6282 17.1355Z" fill="#A0616A"/>
<path d="M26.2872 48.4372C23.3715 45.0516 22.3513 39.857 27.0009 35.5361C28.1493 34.4951 29.4496 33.6342 30.8573 32.9826L34.6044 22.5332C34.9936 21.4419 35.7074 20.495 36.6504 19.8186C37.5935 19.1423 38.7209 18.7688 39.8824 18.748C41.01 18.6995 42.125 19.0002 43.0743 19.6089C44.0236 20.2176 44.7605 21.1044 45.184 22.1475C45.6417 23.2087 45.694 24.4002 45.3312 25.4973C44.2156 28.9609 42.7506 32.3027 40.9587 35.4715L41.1524 37.0171L50.6246 37.8565L50.5362 37.9998C50.4901 38.0745 45.8543 45.117 39.9237 49.7916C37.8958 51.3898 35.799 52.0523 33.8199 52.0522C30.819 52.0528 28.0895 50.5295 26.2872 48.4372Z" fill="#CCCCCC"/>
<path d="M25.3934 13.6296C26.2999 12.5525 26.6887 11.1438 27.0016 9.77268C27.4965 7.6034 27.8795 5.36028 28.979 3.42434C30.0786 1.48841 32.0992 -0.115601 34.3271 0.00654568C36.5424 0.128029 38.3332 1.90497 39.2838 3.92671C39.514 3.83764 39.7603 3.79775 40.0069 3.80961C40.2535 3.82147 40.4948 3.88483 40.7153 3.99558C41.4004 4.36965 41.6566 5.43297 41.0863 5.96537C41.6862 5.6806 42.3394 5.52491 43.0035 5.50841C43.6677 5.49191 44.3279 5.61498 44.9412 5.86961C45.7298 6.20438 46.4106 6.74956 46.9086 7.44518C47.4066 8.14079 47.7024 8.95989 47.7637 9.81234C47.7876 10.1583 47.7399 10.5055 47.6237 10.8324C47.5076 11.1592 47.3253 11.4588 47.0882 11.7126C46.1052 12.7216 44.7146 12.3736 43.4782 12.1165C42.3104 11.8737 40.8881 11.8082 40.2301 12.9176C39.9709 13.3799 39.8983 13.9234 40.0272 14.4372C40.2792 15.5446 41.1017 16.316 41.8995 17.0544L42.03 17.296C39.2129 17.8437 36.1376 15.9255 35.3979 13.1604C34.6582 10.3954 36.37 7.20543 39.0868 6.28302C38.9059 6.28882 38.7267 6.24632 38.5679 6.15991C38.409 6.0735 38.2762 5.94632 38.1832 5.79155C38.0901 5.63677 38.0403 5.46002 38.0388 5.27959C38.0373 5.09916 38.0842 4.9216 38.1746 4.76531C37.4228 4.34511 36.572 4.13315 35.7103 4.15142C34.307 4.24319 33.0925 5.23912 32.3622 6.43753C31.6318 7.63593 31.301 9.02652 30.9661 10.3886C30.6312 11.7506 30.2687 13.1384 29.4877 14.3052C28.9468 15.113 28.2241 15.7835 27.3772 16.2632C26.5303 16.743 25.5826 17.0188 24.6098 17.0685C23.637 17.1183 22.666 16.9406 21.7743 16.5498C20.8826 16.1589 20.0948 15.5657 19.4739 14.8174C20.4551 15.2918 21.5653 15.4325 22.6344 15.218C23.7034 15.0035 24.6726 14.4455 25.3934 13.6296Z" fill="#2F2E41"/>
<path d="M64.0081 14.3855C65.2855 14.3651 66.5402 14.7228 67.6136 15.4134C68.6871 16.104 69.531 17.0964 70.0386 18.2653C70.5463 19.4341 70.6949 20.7269 70.4657 21.98C70.2365 23.2332 69.6397 24.3904 68.7509 25.3054C67.862 26.2205 66.7211 26.8522 65.4722 27.1207C64.2233 27.3892 62.9227 27.2825 61.7348 26.814C60.5468 26.3455 59.5249 25.5362 58.7983 24.4886C58.0717 23.441 57.673 22.202 57.6526 20.9284C57.6272 19.2211 58.2821 17.5734 59.4736 16.3468C60.6651 15.1202 62.2958 14.4149 64.0081 14.3855ZM64.197 26.1914C65.2615 26.1743 66.297 25.843 67.1727 25.2391C68.0483 24.6353 68.7248 23.7862 69.1164 22.7991C69.5081 21.812 69.5974 20.7313 69.3731 19.6937C69.1488 18.6561 68.6209 17.7081 67.8562 16.9696C67.0914 16.2312 66.1243 15.7355 65.0769 15.5451C64.0296 15.3547 62.9491 15.4783 61.9722 15.9002C60.9952 16.3221 60.1656 17.0234 59.5884 17.9153C59.0111 18.8073 58.712 19.8498 58.729 20.9112C58.7534 22.3339 59.3428 23.6888 60.3679 24.6787C61.393 25.6686 62.77 26.2126 64.197 26.1914Z" fill="white"/>
<path d="M64.4519 28.8711C64.5947 28.8688 64.7325 28.9232 64.835 29.0222C64.9376 29.1212 64.9965 29.2568 64.9987 29.3991L65.0975 35.5704C65.0998 35.7127 65.0452 35.8501 64.9459 35.9523C64.8466 36.0546 64.7106 36.1133 64.5679 36.1156C64.4251 36.1179 64.2873 36.0635 64.1848 35.9645C64.0822 35.8655 64.0233 35.7299 64.0211 35.5876L63.9223 29.4164C63.9201 29.274 63.9746 29.1366 64.0739 29.0344C64.1732 28.9321 64.3092 28.8734 64.4519 28.8711Z" fill="white"/>
<path d="M72.7175 20.3619L78.9069 20.2628C79.0496 20.2606 79.1874 20.3149 79.29 20.4139C79.3925 20.5129 79.4514 20.6485 79.4537 20.7909C79.456 20.9332 79.4015 21.0706 79.3021 21.1728C79.2028 21.2751 79.0668 21.3338 78.9241 21.3361L72.7346 21.4351C72.5919 21.4374 72.4541 21.3831 72.3515 21.284C72.249 21.185 72.1901 21.0494 72.1878 20.9071C72.1855 20.7648 72.2401 20.6274 72.3394 20.5251C72.4387 20.4229 72.5747 20.3642 72.7175 20.3619Z" fill="white"/>
<path d="M50.1123 20.7236L56.3018 20.6245C56.4445 20.6222 56.5823 20.6766 56.6849 20.7756C56.7874 20.8746 56.8463 21.0102 56.8486 21.1525C56.8509 21.2949 56.7963 21.4323 56.697 21.5345C56.5977 21.6368 56.4617 21.6955 56.319 21.6978L50.1295 21.7968C49.9868 21.7991 49.849 21.7448 49.7464 21.6457C49.6439 21.5467 49.585 21.4111 49.5827 21.2688C49.5804 21.1265 49.635 20.9891 49.7343 20.8868C49.8336 20.7846 49.9696 20.7258 50.1123 20.7236Z" fill="white"/>
<path d="M56.5659 26.4893C56.673 26.4876 56.7782 26.5178 56.868 26.5761C56.9579 26.6344 57.0282 26.718 57.07 26.8164C57.1118 26.9148 57.1233 27.0233 57.1029 27.1282C57.0824 27.2331 57.0311 27.3295 56.9554 27.4051L54.4035 29.9539C54.3536 30.004 54.2943 30.0437 54.2289 30.0708C54.1636 30.098 54.0936 30.112 54.0228 30.1121C53.952 30.1122 53.8819 30.0984 53.8165 30.0715C53.7511 30.0446 53.6917 30.0051 53.6416 29.9552C53.5915 29.9054 53.5518 29.8462 53.5247 29.781C53.4976 29.7158 53.4836 29.646 53.4836 29.5754C53.4836 29.5049 53.4976 29.435 53.5247 29.3698C53.5518 29.3046 53.5916 29.2454 53.6417 29.1956L56.1935 26.6468C56.2923 26.5479 56.4259 26.4914 56.5659 26.4893Z" fill="white"/>
<path d="M72.3721 26.2365C72.5121 26.234 72.6474 26.2862 72.7493 26.3819L75.3814 28.8478C75.4331 28.896 75.4747 28.9539 75.5039 29.0182C75.5331 29.0824 75.5492 29.1518 75.5515 29.2223C75.5538 29.2929 75.5421 29.3631 75.5171 29.4291C75.4921 29.4952 75.4542 29.5556 75.4058 29.607C75.3573 29.6585 75.2992 29.6998 75.2347 29.7288C75.1702 29.7578 75.1005 29.7739 75.0298 29.776C74.9591 29.7782 74.8886 29.7664 74.8224 29.7413C74.7563 29.7163 74.6957 29.6785 74.6442 29.6301L72.0121 27.1643C71.934 27.0911 71.8796 26.9964 71.8558 26.8922C71.8321 26.788 71.84 26.6791 71.8787 26.5795C71.9174 26.4798 71.985 26.3939 72.0729 26.3328C72.1608 26.2717 72.265 26.2382 72.3721 26.2365Z" fill="white"/>
<path d="M74.1913 11.5388C74.297 11.5371 74.401 11.5666 74.49 11.6234C74.5791 11.6803 74.6494 11.7621 74.6922 11.8586C74.7349 11.955 74.7482 12.0619 74.7304 12.1659C74.7126 12.2698 74.6645 12.3663 74.592 12.4431L72.0426 15.146C71.9448 15.2496 71.8097 15.3102 71.667 15.3145C71.5244 15.3188 71.3859 15.2665 71.2819 15.169C71.178 15.0715 71.1171 14.9369 71.1127 14.7947C71.1082 14.6524 71.1606 14.5143 71.2583 14.4105L73.8077 11.7077C73.857 11.6553 73.9164 11.6134 73.9823 11.5844C74.0482 11.5554 74.1193 11.5399 74.1913 11.5388Z" fill="white"/>
<path d="M53.1923 11.338C53.2641 11.3367 53.3355 11.3498 53.4021 11.3766C53.4687 11.4034 53.5292 11.4432 53.5801 11.4938L56.7615 14.6417C56.8117 14.6913 56.8517 14.7503 56.8791 14.8153C56.9065 14.8804 56.9207 14.9502 56.921 15.0207C56.9214 15.0912 56.9077 15.1611 56.8809 15.2264C56.8541 15.2917 56.8147 15.351 56.7648 15.4011C56.715 15.4512 56.6557 15.4909 56.5905 15.5182C56.5252 15.5454 56.4552 15.5595 56.3845 15.5597C56.3137 15.5599 56.2436 15.5462 56.1782 15.5194C56.1128 15.4926 56.0533 15.4532 56.0032 15.4034L52.8218 12.2555C52.7466 12.1811 52.6951 12.0863 52.6737 11.9829C52.6523 11.8795 52.662 11.7721 52.7016 11.6741C52.7411 11.5762 52.8088 11.492 52.8961 11.4322C52.9834 11.3724 53.0865 11.3397 53.1923 11.338Z" fill="white"/>
<path d="M64.0827 5.79611C64.2254 5.79383 64.3632 5.84818 64.4658 5.9472C64.5683 6.04622 64.6272 6.1818 64.6295 6.32413L64.7282 12.4954C64.7294 12.5658 64.7166 12.6358 64.6905 12.7014C64.6645 12.7669 64.6258 12.8267 64.5767 12.8773C64.5275 12.928 64.4688 12.9684 64.4039 12.9965C64.339 13.0245 64.2693 13.0395 64.1986 13.0406C64.1279 13.0417 64.0577 13.029 63.992 13.003C63.9263 12.9771 63.8663 12.9385 63.8155 12.8895C63.7647 12.8405 63.7241 12.782 63.6961 12.7173C63.668 12.6526 63.6529 12.583 63.6518 12.5126L63.5531 6.34135C63.5508 6.19903 63.6053 6.06163 63.7046 5.95938C63.804 5.85713 63.9399 5.7984 64.0827 5.79611Z" fill="white"/>
<path d="M57.9157 25.0937C57.8616 25.1953 57.8156 25.3011 57.7782 25.41L47.7773 28.0542L46.0018 26.2803L42.9666 28.6019L46.5983 33.0115L58.5733 27.9085C58.9356 28.1656 59.3678 28.3065 59.8123 28.3127C60.2569 28.3189 60.6929 28.1899 61.0622 27.943C61.4315 27.6962 61.7166 27.343 61.8798 26.9306C62.0429 26.5182 62.0762 26.0661 61.9753 25.6343C61.8744 25.2025 61.6441 24.8116 61.315 24.5136C60.9858 24.2155 60.5735 24.0244 60.1328 23.9657C59.692 23.907 59.2438 23.9835 58.8478 24.1849C58.4517 24.3864 58.1265 24.7033 57.9155 25.0935L57.9157 25.0937Z" fill="#A0616A"/>
<path d="M43.547 30.6693L37.794 24.9324C37.5322 24.6717 37.3246 24.3621 37.1829 24.0213C37.0412 23.6806 36.9682 23.3153 36.9681 22.9465C36.9681 22.5776 37.0409 22.2123 37.1824 21.8715C37.3239 21.5307 37.5314 21.221 37.793 20.9602C38.0547 20.6993 38.3652 20.4925 38.7071 20.3513C39.0489 20.2102 39.4152 20.1376 39.7852 20.1377C40.1552 20.1378 40.5215 20.2105 40.8632 20.3518C41.205 20.4931 41.5155 20.7001 41.777 20.9611L47.5303 26.6975C47.7064 26.873 47.8053 27.111 47.8054 27.3592C47.8054 27.6074 47.7066 27.8455 47.5306 28.021L47.5303 28.0212L44.875 30.669C44.6987 30.8442 44.46 30.9426 44.2111 30.9426C43.9622 30.9426 43.7234 30.8442 43.5472 30.669L43.547 30.6693Z" fill="#CCCCCC"/>
<path d="M104.519 104.913H44.9157C32.0571 104.913 21.5959 94.307 21.5959 81.2705C21.5959 68.2341 32.0571 57.6282 44.9157 57.6282H49.156C51.4889 52.8858 55.0837 48.8735 59.548 46.0295C64.0775 43.1419 69.3411 41.6067 74.7173 41.6051C89.6301 41.6051 102.06 53.2974 103.217 68.3103H104.519C114.482 68.3103 122.588 76.5202 122.588 86.6116C122.588 96.703 114.482 104.913 104.519 104.913ZM44.9157 58.624C32.6078 58.624 22.5947 68.7831 22.5947 81.2706C22.5947 93.7579 32.6078 103.917 44.9157 103.917H104.519C113.932 103.917 121.59 96.1539 121.59 86.6116C121.59 77.0693 113.932 69.3061 104.519 69.3061H102.281L102.252 68.8385C101.352 54.1258 89.2577 42.6009 74.7173 42.6009C64.2469 42.6009 54.513 48.7793 49.919 58.3411L49.7832 58.624H44.9157Z" fill="#CCCCCC"/>
</svg>
